# xmcd CD database file
#
# Track frame offsets:
#	150
#	24286
#	58471
#	80166
#	91367
#	125702
#	143374
#	157699
#	171477
#	194541
#	217239
#
# Disc length: 3307 seconds
#
# Revision: 0
# Processed by: cddbd v1.4PL0 Copyright (c) Steve Scherf et al.
# Submitted via: CDex 1.51
#
DISCID=9f0ce90b
DTITLE=Ronnie Lynn Patterson, Michel Benita, Jeff Boudreaux - Mississippi
DYEAR=2003
DGENRE=Jazz
TTITLE0=Mississippi
TTITLE1=Barcelona
TTITLE2=Free as the Wind
TTITLE3=Fragments
TTITLE4=Rain
TTITLE5=Mystery of the Sea
TTITLE6=Mystery of the Sea (part 2)
TTITLE7=Liberation for All
TTITLE8=Carrie and all her Cats
TTITLE9=Rainbow
TTITLE10=Tears
EXTD=YEAR: 2003
EXTT0=
EXTT1=
EXTT2=
EXTT3=
EXTT4=
EXTT5=
EXTT6=
EXTT7=
EXTT8=
EXTT9=
EXTT10=
PLAYORDER=
